<svg width="26" height="27" viewBox="0 0 26 27" fill="none" xmlns="http://www.w3.org/2000/svg">
<circle cx="13" cy="13.5" r="13" fill="#2DCCFF"/>
<path d="M12.5219 10.135V14.47H12.7519C12.8185 14.47 12.8735 14.4617 12.9169 14.445C12.9635 14.425 13.0119 14.3867 13.0619 14.33L14.6619 12.615C14.7085 12.5583 14.7569 12.515 14.8069 12.485C14.8602 12.4517 14.9302 12.435 15.0169 12.435H15.8219L13.9569 14.42C13.8669 14.5333 13.7702 14.6217 13.6669 14.685C13.7269 14.725 13.7802 14.7717 13.8269 14.825C13.8769 14.875 13.9235 14.9333 13.9669 15L15.9469 17.5H15.1519C15.0752 17.5 15.0085 17.4883 14.9519 17.465C14.8985 17.4383 14.8519 17.3917 14.8119 17.325L13.1469 15.25C13.0969 15.18 13.0469 15.135 12.9969 15.115C12.9502 15.0917 12.8769 15.08 12.7769 15.08H12.5219V17.5H11.6269V10.135H12.5219Z" fill="#3A3541"/>
</svg>
